<svg width="195" height="43" viewBox="0 0 195 43" fill="none" xmlns="http://www.w3.org/2000/svg">
<path d="M57.6745 13.275H61.4495L63.2995 18.95L65.1495 13.275H68.9495L65.9245 21.525L67.7245 26.25L72.1745 13.25H76.6495L69.7245 31H66.1745L63.2995 24.05L60.4495 31H56.8745L49.9745 13.25H54.4245L58.8995 26.25L60.6495 21.525L57.6745 13.275ZM82.3345 31.25C81.2178 31.25 80.2178 31.0667 79.3345 30.7C78.4678 30.3333 77.7345 29.8333 77.1345 29.2C76.5345 28.5667 76.0761 27.8417 75.7595 27.025C75.4595 26.2083 75.3095 25.35 75.3095 24.45C75.3095 23.5333 75.4595 22.6667 75.7595 21.85C76.0761 21.0333 76.5345 20.3083 77.1345 19.675C77.7345 19.0417 78.4678 18.5417 79.3345 18.175C80.2178 17.8083 81.2178 17.625 82.3345 17.625C83.4511 17.625 84.4428 17.8083 85.3095 18.175C86.1761 18.5417 86.9095 19.0417 87.5095 19.675C88.1095 20.3083 88.5678 21.0333 88.8845 21.85C89.2011 22.6667 89.3595 23.5333 89.3595 24.45C89.3595 25.35 89.2011 26.2083 88.8845 27.025C88.5678 27.8417 88.1095 28.5667 87.5095 29.2C86.9095 29.8333 86.1761 30.3333 85.3095 30.7C84.4428 31.0667 83.4511 31.25 82.3345 31.25ZM79.4095 24.45C79.4095 25.1333 79.5345 25.7333 79.7845 26.25C80.0511 26.7667 80.4011 27.1667 80.8345 27.45C81.2678 27.7333 81.7678 27.875 82.3345 27.875C82.8845 27.875 83.3761 27.7333 83.8095 27.45C84.2595 27.15 84.6095 26.7417 84.8595 26.225C85.1095 25.7083 85.2345 25.1167 85.2345 24.45C85.2345 23.7667 85.1095 23.1667 84.8595 22.65C84.6095 22.1333 84.2595 21.7333 83.8095 21.45C83.3761 21.1667 82.8845 21.025 82.3345 21.025C81.7678 21.025 81.2678 21.1667 80.8345 21.45C80.4011 21.7333 80.0511 22.1333 79.7845 22.65C79.5345 23.1667 79.4095 23.7667 79.4095 24.45ZM99.6683 21.3C98.7016 21.3 97.8266 21.4583 97.0433 21.775C96.2599 22.075 95.6933 22.525 95.3433 23.125V31H91.3433V17.875H95.0183V20.525C95.4683 19.6417 96.0516 18.95 96.7683 18.45C97.4849 17.95 98.2349 17.6917 99.0183 17.675C99.2016 17.675 99.3349 17.675 99.4183 17.675C99.5183 17.675 99.6016 17.6833 99.6683 17.7V21.3ZM110.178 31L106.753 25.75L105.353 27.175V31H101.353V12.75H105.353V23.3L109.803 17.875H114.028L109.303 23.525L114.428 31H110.178ZM123.39 31.15C121.973 31.15 120.765 30.9167 119.765 30.45C118.765 29.9667 117.948 29.3167 117.315 28.5C116.698 27.6667 116.24 26.725 115.94 25.675C115.657 24.6083 115.515 23.4917 115.515 22.325V13.25H119.615V22.325C119.615 22.9917 119.682 23.6417 119.815 24.275C119.948 24.8917 120.165 25.4417 120.465 25.925C120.765 26.4083 121.148 26.7917 121.615 27.075C122.098 27.3583 122.69 27.5 123.39 27.5C124.107 27.5 124.707 27.3583 125.19 27.075C125.673 26.775 126.057 26.3833 126.34 25.9C126.623 25.4 126.832 24.8417 126.965 24.225C127.098 23.6083 127.165 22.975 127.165 22.325V13.25H131.265V22.325C131.265 23.5583 131.107 24.7083 130.79 25.775C130.49 26.8417 130.023 27.7833 129.39 28.6C128.757 29.4 127.94 30.025 126.94 30.475C125.957 30.925 124.773 31.15 123.39 31.15ZM138.849 31.25C137.732 31.25 136.64 31.0667 135.574 30.7C134.507 30.3333 133.607 29.7917 132.874 29.075L134.249 26.55C135.049 27.1333 135.824 27.575 136.574 27.875C137.34 28.175 138.057 28.325 138.724 28.325C139.24 28.325 139.64 28.2417 139.924 28.075C140.207 27.9083 140.349 27.65 140.349 27.3C140.349 27.05 140.265 26.8583 140.099 26.725C139.932 26.575 139.674 26.4417 139.324 26.325C138.99 26.2083 138.574 26.0833 138.074 25.95C137.074 25.6167 136.24 25.2917 135.574 24.975C134.907 24.6583 134.407 24.275 134.074 23.825C133.74 23.3583 133.574 22.7583 133.574 22.025C133.574 21.1417 133.79 20.375 134.224 19.725C134.674 19.0583 135.307 18.5417 136.124 18.175C136.94 17.8083 137.915 17.625 139.049 17.625C139.949 17.625 140.824 17.7667 141.674 18.05C142.54 18.3333 143.349 18.8083 144.099 19.475L142.549 21.975C141.799 21.4583 141.132 21.0833 140.549 20.85C139.965 20.6167 139.399 20.5 138.849 20.5C138.565 20.5 138.307 20.5333 138.074 20.6C137.84 20.6667 137.649 20.7833 137.499 20.95C137.365 21.1 137.299 21.3 137.299 21.55C137.299 21.8 137.365 22 137.499 22.15C137.649 22.3 137.874 22.4333 138.174 22.55C138.49 22.65 138.882 22.775 139.349 22.925C140.432 23.2417 141.332 23.5667 142.049 23.9C142.765 24.2167 143.299 24.6167 143.649 25.1C144.015 25.5667 144.199 26.1917 144.199 26.975C144.199 28.3083 143.715 29.3583 142.749 30.125C141.799 30.875 140.499 31.25 138.849 31.25Z" fill="black"/>
<rect x="34" y="1" width="127" height="41" stroke="black" stroke-width="2"/>
</svg>
